Coordinates
version=1
nRows=9
nColumns=36
inDegrees=yes

Units are S.I. units (second, meters, Newtons, ...)
If the header above contains a line with 'inDegrees', this indicates whether rotational values are in degrees (yes) or radians (no).

endheader
time	pelvis_tilt	pelvis_list	pelvis_rotation	pelvis_tx	pelvis_ty	pelvis_tz	hip_flexion_r	hip_adduction_r	hip_rotation_r	knee_angle_r	knee_angle_r_beta	ankle_angle_r	subtalar_angle_r	mtp_angle_r	hip_flexion_l	hip_adduction_l	hip_rotation_l	knee_angle_l	knee_angle_l_beta	ankle_angle_l	subtalar_angle_l	mtp_angle_l	lumbar_extension	lumbar_bending	lumbar_rotation	arm_flex_r	arm_add_r	arm_rot_r	elbow_flex_r	pro_sup_r	arm_flex_l	arm_add_l	arm_rot_l	elbow_flex_l	pro_sup_l
      0.00000000	      2.64916450	     -8.11137883	     10.24417568	      0.41776296	      0.88817856	     -0.06088018	     32.75103485	      1.08042613	    -12.04685752	     11.89262099	      0.20756539	      0.05293236	      4.49801809	     -6.43812670	      7.23120264	      2.76542449	      4.12402871	     17.24095367	      0.30091141	      4.12527669	    -16.17936695	     -6.43812670	     -2.99830257	      1.10511025	     -4.15233852	     33.83452985	      6.77047941	     61.22560470	    123.81308781	    105.78559443	     32.38802448	      8.43020223	     64.47791543	    108.18683915	     97.98465897
      0.01666670	      3.42515286	     -6.75799824	     10.02904742	      0.42368423	      0.88846126	     -0.06189329	     30.68955161	      0.13246511	     -8.70187406	     10.04537061	      0.17532479	     -1.94647329	      1.92025084	     -6.52611350	      4.36471627	      4.21284820	      6.28302640	     14.58107283	      0.25448773	      4.47044818	    -17.62723901	     -6.52611350	     -3.09536351	      0.34154078	     -4.45909715	     35.34635122	      7.49803700	     65.17088591	    123.17333635	    105.73483115	     32.03016539	      6.64111712	     66.24498693	    111.70638364	     95.85451323
      0.03333330	      3.12600161	     -5.49500160	      8.83985820	      0.41874570	      0.89013935	     -0.05833768	     30.45790077	     -0.20061347	     -7.78662613	      9.49584173	      0.16573370	     -2.48975029	      2.50894697	     -6.54008253	      4.84753785	      5.13628240	      3.76752286	     14.62391105	      0.25523540	      4.08604984	    -18.43375882	     -6.54008253	     -3.38550737	     -1.18122314	     -3.03893498	     34.86804713	      7.61932101	     66.71635308	    123.21719439	    105.77601021	     31.90971321	      5.88394579	     67.33082000	    113.35577753	     95.32677060
      0.05000000	      3.14075034	     -5.27253722	      8.56053094	      0.41791547	      0.89063386	     -0.05801359	     30.49956846	     -0.20659241	     -7.42541989	      9.33436627	      0.16291542	     -3.15828377	      2.36523765	     -6.95155702	      5.15401160	      5.00050434	      3.19943654	     15.00515146	      0.26188930	      3.64371667	    -18.26543991	     -6.95155702	     -3.86841125	     -1.35276892	     -2.18044659	     35.33512818	      7.41295432	     67.64291948	    122.52839527	    104.50260941	     32.58589356	      5.94752613	     68.76921093	    113.91789952	     84.85890201
      0.06666670	      3.55990063	     -5.62506170	      8.43622300	      0.41862195	      0.89381715	     -0.05928236	     29.99865539	      0.30542413	     -7.11486017	      9.40800776	      0.16420071	     -3.37276742	      2.17707556	     -7.01742179	      5.38551389	      4.36915360	      2.71894440	     15.95324384	      0.27843663	      2.99057032	    -18.68191445	     -7.01742179	     -4.60000462	     -0.57586183	     -1.85529917	     35.35309116	      7.24441880	     68.19525960	    121.74136178	    103.62468603	     32.60783958	      6.15253958	     68.83829752	    113.77184885	     82.43531136
      0.08333330	      3.72296666	     -5.94612347	      8.59117236	      0.41726188	      0.89096133	     -0.05939712	     30.18613985	      0.48201817	     -6.73616307	      9.61930015	      0.16788846	     -3.30527549	      1.38856640	     -7.14715772	      5.88193729	      3.87895471	      2.41718465	     16.81476544	      0.29347302	      2.81966211	    -18.79558249	     -7.14715772	     -4.98783983	     -0.02267266	     -2.00734139	     35.60000484	      7.28123607	     68.69472863	    121.27735574	    101.18764094	     32.63769296	      6.52748213	     68.68561148	    113.80813489	     78.62775589
      0.10000000	      4.15805311	     -6.28904609	      8.69023695	      0.41751855	      0.89145551	     -0.06027837	     30.17751326	      0.63017429	     -6.42534780	      9.99801530	      0.17449829	     -3.43308668	      0.65574931	     -7.18478782	      5.99730705	      3.33465558	      1.67637015	     17.50547877	      0.30552824	      2.49648216	    -19.19051384	     -7.18478782	     -5.57469529	      0.57509995	     -1.93551956	     35.81859127	      7.17328545	     68.81842779	    121.01380430	     99.74895972	     32.74369461	      6.92547143	     68.52366248	    113.71566969	     76.77657642
      0.11666670	      4.49862138	     -6.55478366	      8.77524631	      0.41621035	      0.89227967	     -0.06041882	     30.19698645	      0.82058776	     -6.33950319	     10.26785817	      0.17920793	     -3.44103149	     -0.01492899	     -7.21952360	      6.27998152	      2.95077386	      1.48671943	     18.43227333	      0.32170386	      2.51001032	    -19.29706328	     -7.21952360	     -6.09816496	      0.95686835	     -1.62024216	     36.37962513	      6.99977880	     68.91304953	    121.04207499	     98.11262630	     32.85469247	      7.25068783	     68.62817214	    114.05086155	     75.31979655
      0.13333330	      4.73075668	     -6.73599008	      8.97892729	      0.41069588	      0.89145375	     -0.05830701	     30.98459820	      0.86371977	     -6.27904197	     11.29479394	      0.19713134	     -3.28048045	     -0.87461725	     -7.23665191	      6.84989579	      2.65643391	      1.26715038	     19.29222336	      0.33671282	      2.81984759	    -19.34598219	     -7.23665191	     -6.84416666	      1.25409157	     -1.31988021	     36.93290499	      6.96246019	     69.00410735	    120.87437796	     97.05590313	     33.09628544	      7.48378475	     68.71627872	    114.30619747	     74.63443983
